<svg xmlns="http://www.w3.org/2000/svg" width="64" height="64" viewBox="0 0 64 64">
  <g fill="none" fill-rule="evenodd">
    <rect width="64" height="64" fill="#BBD321" rx="7"/>
    <path fill="#FFF" fill-rule="nonzero" d="M26.2026367,15.8759766 L33.0800781,15.8759766 L22.159668,48 L14.7329102,48 L3.83447266,15.8759766 L10.7119141,15.8759766 L16.7543945,34.9921875 C17.0913103,36.1201228 17.4392072,37.4348069 17.7980957,38.9362793 C18.1569842,40.4377516 18.3803707,41.4814424 18.4682617,42.0673828 C18.6293953,40.7197198 19.1787062,38.361345 20.1162109,34.9921875 L26.2026367,15.8759766 Z M43.8178711,29.9604492 L56.5620117,29.9604492 L56.5620117,46.6157227 C54.4965717,47.2895542 52.5520111,47.7619615 50.7282715,48.032959 C48.9045319,48.3039564 47.0405369,48.4394531 45.1362305,48.4394531 C40.2875734,48.4394531 36.5852179,47.0149068 34.0290527,44.1657715 C31.4728876,41.3166361 30.1948242,37.2261009 30.1948242,31.894043 C30.1948242,26.7084702 31.6779637,22.6655418 34.6442871,19.7651367 C37.6106105,16.8647316 41.7231182,15.4145508 46.9819336,15.4145508 C50.2778485,15.4145508 53.4565277,16.0737239 56.5180664,17.3920898 L54.2548828,22.8413086 C51.9111211,21.6694277 49.4721806,21.0834961 46.9379883,21.0834961 C43.9936376,21.0834961 41.6352628,22.0722557 39.862793,24.0498047 C38.0903232,26.0273536 37.2041016,28.6860185 37.2041016,32.0258789 C37.2041016,35.5122245 37.9182057,38.1745514 39.3464355,40.0129395 C40.7746653,41.8513276 42.8510606,42.7705078 45.5756836,42.7705078 C46.9965891,42.7705078 48.4394458,42.6240249 49.9042969,42.3310547 L49.9042969,35.6293945 L43.8178711,35.6293945 L43.8178711,29.9604492 Z"/>
  </g>
</svg>