<svg width="97" height="97" xmlns="http://www.w3.org/2000/svg" xmlns:xlink="http://www.w3.org/1999/xlink" overflow="hidden"><defs><clipPath id="clip0"><rect x="604" y="301" width="97" height="97"/></clipPath><clipPath id="clip1"><rect x="604" y="302" width="96" height="96"/></clipPath><clipPath id="clip2"><rect x="604" y="302" width="96" height="96"/></clipPath><clipPath id="clip3"><rect x="604" y="302" width="96" height="96"/></clipPath></defs><g clip-path="url(#clip0)" transform="translate(-604 -301)"><g clip-path="url(#clip1)"><g clip-path="url(#clip2)"><g clip-path="url(#clip3)"><path d="M657.005 333.192C660.65 333.192 663.605 330.237 663.605 326.592 663.605 322.947 660.65 319.992 657.005 319.992 653.36 319.992 650.405 322.947 650.405 326.592 650.405 330.237 653.36 333.192 657.005 333.192ZM657.005 322C659.546 322 661.605 324.06 661.605 326.6 661.605 329.141 659.546 331.2 657.005 331.2 654.464 331.2 652.405 329.141 652.405 326.6 652.405 324.06 654.464 322 657.005 322Z" stroke="#000000"/><path d="M642.405 372C642.136 372 641.883 372 641.643 371.993 641.486 372.67 641.275 373.333 641.011 373.976 641.445 373.991 641.905 374 642.405 374L663.005 374C662.738 373.352 662.524 372.683 662.365 372Z" stroke="#000000"/><path d="M648.77 365.187C648.222 367.187 649.4 369.253 651.4 369.8 653.305 370.322 655.289 369.278 655.938 367.413L660.72 352.042 666.691 348.684C668.515 349.343 670.528 348.399 671.187 346.574 671.787 344.914 671.061 343.066 669.491 342.258L667.815 341.358C667.73 340.678 667.578 340.008 667.36 339.358 668.223 339.128 669.112 339.008 670.005 339 676.077 339.007 680.998 343.928 681.005 350 680.967 351.943 680.443 353.845 679.481 355.533L678.773 356.562C679.426 356.763 680.061 357.017 680.673 357.32L681.173 356.585C682.33 354.58 682.961 352.315 683.005 350 682.997 342.824 677.181 337.008 670.005 337 668.544 337.032 667.097 337.283 665.711 337.745L664.583 338.092 665.11 339.147C665.262 339.452 665.394 339.768 665.503 340.091L653.169 333.469C650.407 332.366 647.254 333.44 645.74 336L638.709 348.055 638.673 348.13 617.005 345.892 617.005 351.739 632.505 356.491C634.544 357.063 636.412 358.124 637.947 359.583 637.528 357.154 635.699 355.21 633.3 354.644L619.005 350.261 619.005 348.108 637.862 350.056C637.15 352.566 638.608 355.179 641.118 355.891 641.354 355.958 641.595 356.006 641.838 356.036L651.21 357.181ZM658.6 350.942C657.906 350.361 657.04 350.024 656.136 349.983L651.836 349.483 655.768 342.708 664.582 347.576ZM639.96 350.119 640.469 349 647.469 337.005C648.471 335.281 650.594 334.563 652.437 335.324L668.572 344.024C669.339 344.372 669.677 345.276 669.329 346.043 668.98 346.81 668.077 347.148 667.31 346.8L655.018 340.011 648.575 351.117 655.968 351.976C656.565 351.977 657.131 352.24 657.516 352.696 657.782 353.066 657.926 353.509 657.928 353.965L657.871 354.572 654.1 366.626C653.846 367.565 652.88 368.12 651.941 367.867 651.49 367.745 651.106 367.449 650.873 367.044 650.642 366.647 650.577 366.175 650.693 365.73L653.817 355.484 642.08 354.05C640.577 353.863 639.509 352.493 639.696 350.99 639.734 350.687 639.822 350.393 639.956 350.119Z" stroke="#000000"/><path d="M629.005 358C622.93 358 618.005 362.925 618.005 369 618.005 375.075 622.93 380 629.005 380 635.08 380 640.005 375.075 640.005 369 640.005 362.925 635.08 358 629.005 358ZM629.005 378C624.034 378 620.005 373.971 620.005 369 620.005 364.029 624.034 360 629.005 360 633.976 360 638.005 364.029 638.005 369 638 373.968 633.973 377.995 629.005 378Z" stroke="#000000"/><path d="M675.005 358C668.93 358 664.005 362.925 664.005 369 664.005 375.075 668.93 380 675.005 380 681.08 380 686.005 375.075 686.005 369 686.005 362.925 681.08 358 675.005 358ZM675.005 378C670.034 378 666.005 373.971 666.005 369 666.005 364.029 670.034 360 675.005 360 679.976 360 684.005 364.029 684.005 369 684 373.968 679.973 377.995 675.005 378Z" stroke="#000000"/></g></g></g></g></svg>