<svg width="45" height="45" xmlns="http://www.w3.org/2000/svg" xmlns:xlink="http://www.w3.org/1999/xlink" overflow="hidden"><defs><clipPath id="clip0"><rect x="521" y="649" width="45" height="45"/></clipPath><clipPath id="clip1"><rect x="521" y="649" width="44" height="44"/></clipPath><clipPath id="clip2"><rect x="521" y="649" width="44" height="44"/></clipPath><clipPath id="clip3"><rect x="521" y="649" width="44" height="44"/></clipPath></defs><g clip-path="url(#clip0)" transform="translate(-521 -649)"><g clip-path="url(#clip1)"><g clip-path="url(#clip2)"><g clip-path="url(#clip3)"><path d="M549.417 658.167 552.167 658.167 552.167 655.417 546.667 655.417 546.667 666.417 549.417 666.417Z"/><path d="M539.333 679.25 528.333 679.25 528.333 668.25C528.333 665.225 530.808 662.75 533.833 662.75 536.858 662.75 539.333 665.225 539.333 668.25L539.333 679.25ZM552.167 660 551.25 660 551.25 668.25 544.833 668.25 544.833 660 533.833 660C529.296 660 525.583 663.713 525.583 668.25L525.583 682 541.167 682 541.167 686.583 544.833 686.583 544.833 682 560.417 682 560.417 668.25C560.417 663.713 556.704 660 552.167 660Z"/></g></g></g></g></svg>