<svg width="97" height="97" xmlns="http://www.w3.org/2000/svg" xmlns:xlink="http://www.w3.org/1999/xlink" overflow="hidden"><defs><clipPath id="clip0"><rect x="944" y="301" width="97" height="97"/></clipPath><clipPath id="clip1"><rect x="945" y="302" width="96" height="96"/></clipPath><clipPath id="clip2"><rect x="945" y="302" width="96" height="96"/></clipPath><clipPath id="clip3"><rect x="945" y="302" width="96" height="96"/></clipPath></defs><g clip-path="url(#clip0)" transform="translate(-944 -301)"><g clip-path="url(#clip1)"><g clip-path="url(#clip2)"><g clip-path="url(#clip3)"><path d="M992.933 316C985.994 315.992 979.506 319.442 975.633 325.2 971.739 330.945 970.917 338.237 973.433 344.705L982.933 365.711 991.133 382.911C991.644 383.905 992.864 384.297 993.859 383.785 994.234 383.592 994.54 383.287 994.733 382.911L1002.93 365.711 1012.43 344.705C1014.95 338.238 1014.13 330.949 1010.23 325.205 1006.36 319.445 999.873 315.993 992.933 316ZM1010.59 343.938 1001.13 364.853 992.946 382.019 992.919 382.019 984.754 364.89 975.278 343.938C973.02 338.09 973.773 331.506 977.292 326.318 983.116 317.68 994.841 315.399 1003.48 321.223 1005.49 322.582 1007.23 324.316 1008.58 326.332 1012.1 331.518 1012.84 338.095 1010.59 343.938Z" stroke="#000000" stroke-width="2"/><path d="M992.933 328C987.962 328 983.933 332.029 983.933 337 983.933 341.971 987.962 346 992.933 346 997.904 346 1001.93 341.971 1001.93 337 1001.95 332.049 997.956 328.02 993.005 328 992.981 328 992.957 328 992.933 328ZM992.933 344.005C989.067 344.005 985.933 340.871 985.933 337.005 985.933 333.139 989.067 330.005 992.933 330.005 996.799 330.005 999.933 333.139 999.933 337.005 999.975 340.83 996.908 343.966 993.083 344.008 993.033 344.008 992.983 344.008 992.933 344.008Z" stroke="#000000" stroke-width="2"/></g></g></g></g></svg>