<svg xmlns="http://www.w3.org/2000/svg" version="1.1" xmlns:xlink="http://www.w3.org/1999/xlink" preserveAspectRatio="none" x="0px" y="0px" width="64px" height="64px" viewBox="0 0 64 64">
<defs/>

<g id="Layer_1">
<g transform="matrix( 1, 0, 0, 1, 0,0) ">
<g>
<g>
<path fill="#E16642" stroke="none" d=" M 64 7 Q 64 4.1 61.95 2.05 59.9 0 57 0 L 7 0 Q 4.1 0 2.05 2.05 0 4.1 0 7 L 0 57 Q 0 59.95 2.05 61.95 4.1 64 7 64 L 57 64 Q 59.9 64 61.95 61.95 64 59.9 64 57 L 64 7 Z"/>
</g>
</g>
</g>
</g>

<g id="Layer_2">
<g transform="matrix( 1, 0, 0, 1, 36.15,38.35) ">
<g id="Layer_2">
<g transform="matrix( 1, 0, 0, 1, 0,0) ">
<g>
<g>
<path fill="#E16642" stroke="none" d=" M 13.45 -14.35 Q 11.9 -14.25 10.75 -13.3 12.65 -13.05 14.6 -11.3 14.1 -10.65 11.45 -8.2 10.4 -8.5 9.1 -8.5 4.45 -8.5 0.05 -3.9 -5.25 1.65 -9.35 4.9 -11.4 6.5 -12.4 7 -15.2 7.7 -18 9.05 -23.55 11.65 -23.5 14.65 -15.55 18.45 -6 16.65 2.1 15.1 8.4 10.4 13.95 6.9 15.3 1.5 16.3 -2.7 14.35 -5.85 L 14.45 -5.85 17.4 -8.25 Q 18 -7.75 19.35 -3.25 20.55 -5.7 20.35 -9.05 L 19.85 -11.85 21.4 -13.1 Q 23.05 -14.5 23.55 -15.1 23.55 -16.1 22.55 -16.8 21.55 -17.45 20.8 -17.05 19 -15 17.05 -13.15 15.35 -14.45 13.45 -14.35 Z"/>
</g>
</g>

<g>
<path stroke="#E16642" stroke-width="2.75" stroke-linejoin="round" stroke-linecap="round" fill="none" d=" M 10.75 -13.3 Q 11.9 -14.25 13.45 -14.35 15.35 -14.45 17.05 -13.15 19 -15 20.8 -17.05 21.55 -17.45 22.55 -16.8 23.55 -16.1 23.55 -15.1 23.05 -14.5 21.4 -13.1 L 19.85 -11.85 20.35 -9.05 Q 20.55 -5.7 19.35 -3.25 18 -7.75 17.4 -8.25 L 14.45 -5.85 14.35 -5.85 Q 16.3 -2.7 15.3 1.5 13.95 6.9 8.4 10.4 2.1 15.1 -6 16.65 -15.55 18.45 -23.5 14.65 -23.55 11.65 -18 9.05 -15.2 7.7 -12.4 7 -11.4 6.5 -9.35 4.9 -5.25 1.65 0.05 -3.9 4.45 -8.5 9.1 -8.5 10.4 -8.5 11.45 -8.2 14.1 -10.65 14.6 -11.3 12.65 -13.05 10.75 -13.3 Z"/>
</g>
</g>
</g>

<g id="Layer_1">
<g transform="matrix( 1, 0, 0, 1, 0,0) ">
<g>
<g>
<path fill="#FEFEFE" stroke="none" d=" M 17.05 -13.15 Q 15.35 -14.45 13.45 -14.35 11.9 -14.25 10.75 -13.3 12.65 -13.05 14.6 -11.3 14.1 -10.65 11.45 -8.2 10.4 -8.5 9.1 -8.5 4.45 -8.5 0.05 -3.9 -5.25 1.65 -9.35 4.9 -11.4 6.5 -12.4 7 -15.2 7.7 -18 9.05 -23.55 11.65 -23.5 14.65 -15.55 18.45 -6 16.65 2.1 15.1 8.4 10.4 13.95 6.9 15.3 1.5 16.3 -2.7 14.35 -5.85 L 14.45 -5.85 17.4 -8.25 Q 18 -7.75 19.35 -3.25 20.55 -5.7 20.35 -9.05 L 19.85 -11.85 21.4 -13.1 Q 23.05 -14.5 23.55 -15.1 23.55 -16.1 22.55 -16.8 21.55 -17.45 20.8 -17.05 19 -15 17.05 -13.15 Z"/>
</g>
</g>
</g>
</g>
</g>

<g transform="matrix( 0.986419677734375, -0.1642303466796875, 0.1642303466796875, 0.986419677734375, 25.15,25.6) ">
<g id="Layer_2">
<g transform="matrix( 1, 0, 0, 1, 0,0) ">
<g>
<g>
<path fill="#E16642" stroke="none" d=" M 13.45 -14.35 Q 11.9 -14.25 10.75 -13.3 12.65 -13.05 14.6 -11.3 14.1 -10.65 11.45 -8.2 10.4 -8.5 9.1 -8.5 4.45 -8.5 0.05 -3.9 -5.25 1.65 -9.35 4.9 -11.4 6.5 -12.4 7 -15.2 7.7 -18 9.05 -23.55 11.65 -23.5 14.65 -15.55 18.45 -6 16.65 2.1 15.1 8.4 10.4 13.95 6.9 15.3 1.5 16.3 -2.7 14.35 -5.85 L 14.45 -5.85 17.4 -8.25 Q 18 -7.75 19.35 -3.25 20.55 -5.7 20.35 -9.05 L 19.85 -11.85 21.4 -13.1 Q 23.05 -14.5 23.55 -15.1 23.55 -16.1 22.55 -16.8 21.55 -17.45 20.8 -17.05 19 -15 17.05 -13.15 15.35 -14.45 13.45 -14.35 Z"/>
</g>
</g>

<g>
<path stroke="#E16642" stroke-width="2.75" stroke-linejoin="round" stroke-linecap="round" fill="none" d=" M 10.75 -13.3 Q 11.9 -14.25 13.45 -14.35 15.35 -14.45 17.05 -13.15 19 -15 20.8 -17.05 21.55 -17.45 22.55 -16.8 23.55 -16.1 23.55 -15.1 23.05 -14.5 21.4 -13.1 L 19.85 -11.85 20.35 -9.05 Q 20.55 -5.7 19.35 -3.25 18 -7.75 17.4 -8.25 L 14.45 -5.85 14.35 -5.85 Q 16.3 -2.7 15.3 1.5 13.95 6.9 8.4 10.4 2.1 15.1 -6 16.65 -15.55 18.45 -23.5 14.65 -23.55 11.65 -18 9.05 -15.2 7.7 -12.4 7 -11.4 6.5 -9.35 4.9 -5.25 1.65 0.05 -3.9 4.45 -8.5 9.1 -8.5 10.4 -8.5 11.45 -8.2 14.1 -10.65 14.6 -11.3 12.65 -13.05 10.75 -13.3 Z"/>
</g>
</g>
</g>

<g id="Layer_1">
<g transform="matrix( 1, 0, 0, 1, 0,0) ">
<g>
<g>
<path fill="#FEFEFE" stroke="none" d=" M 17.05 -13.15 Q 15.35 -14.45 13.45 -14.35 11.9 -14.25 10.75 -13.3 12.65 -13.05 14.6 -11.3 14.1 -10.65 11.45 -8.2 10.4 -8.5 9.1 -8.5 4.45 -8.5 0.05 -3.9 -5.25 1.65 -9.35 4.9 -11.4 6.5 -12.4 7 -15.2 7.7 -18 9.05 -23.55 11.65 -23.5 14.65 -15.55 18.45 -6 16.65 2.1 15.1 8.4 10.4 13.95 6.9 15.3 1.5 16.3 -2.7 14.35 -5.85 L 14.45 -5.85 17.4 -8.25 Q 18 -7.75 19.35 -3.25 20.55 -5.7 20.35 -9.05 L 19.85 -11.85 21.4 -13.1 Q 23.05 -14.5 23.55 -15.1 23.55 -16.1 22.55 -16.8 21.55 -17.45 20.8 -17.05 19 -15 17.05 -13.15 Z"/>
</g>
</g>
</g>
</g>
</g>
</g>
</svg>